<svg aria-hidden="true" style="position: absolute; width: 0; height: 0; overflow: hidden;" version="1.1" xmlns="http://www.w3.org/2000/svg" xmlns:xlink="http://www.w3.org/1999/xlink">
<defs>
<symbol id="icon-arrow-about" viewBox="0 0 60 32">
<path  d="M59.45 0.542c-0.386-0.382-0.917-0.617-1.503-0.617s-1.117 0.236-1.503 0.618l-26.416 26.39-26.484-26.39c-0.385-0.385-0.916-0.623-1.503-0.623-1.174 0-2.125 0.952-2.125 2.125 0 0.587 0.238 1.118 0.623 1.503v0l27.917 27.833c0.373 0.384 0.894 0.621 1.471 0.621 0.011 0 0.022-0 0.033-0l-0.002 0c0.586-0.001 1.117-0.238 1.503-0.621l-0 0 27.917-27.833c0.417-0.382 0.678-0.929 0.678-1.537 0-0.573-0.231-1.092-0.606-1.468l0 0z"></path>
</symbol>
<symbol id="icon-Icon" viewBox="0 0 32 32">
<path fill="#ffffff" d="M31.696 30.368l-7.776-7.776c2.067-2.374 3.326-5.497 3.326-8.915 0-7.516-6.093-13.61-13.61-13.61s-13.61 6.093-13.61 13.61c0 7.516 6.093 13.61 13.61 13.61 3.429 0 6.562-1.268 8.955-3.361l-0.016 0.014 7.776 7.776c0.173 0.172 0.409 0.279 0.671 0.283h0.001c0.003 0 0.006 0 0.009 0 0.261 0 0.496-0.109 0.663-0.283l0-0c0.171-0.173 0.276-0.411 0.276-0.674s-0.105-0.5-0.276-0.674l0 0zM1.904 13.645c0.005-6.474 5.254-11.72 11.728-11.72 6.477 0 11.728 5.251 11.728 11.728s-5.251 11.728-11.728 11.728v0c-6.477-0.007-11.725-5.258-11.728-11.736v-0z"></path>
</symbol>
<symbol id="icon-Arrow" viewBox="0 0 64 32">
<path fill="#9db892" d="M63.75 14.962l-14.573-14.531c-0.269-0.312-0.664-0.508-1.106-0.508-0.363 0-0.695 0.133-0.95 0.353l0.002-0.002c-0.317 0.264-0.518 0.66-0.518 1.102 0 0.363 0.135 0.695 0.358 0.948l-0.001-0.002c0.043 0.063 0.097 0.115 0.158 0.156l0.002 0.001 12.102 12.063h-57.779c-0.728 0.087-1.287 0.7-1.287 1.444s0.559 1.358 1.28 1.444l0.007 0.001h57.779l-12.102 12.047c-0.317 0.265-0.518 0.661-0.518 1.104 0 0.364 0.135 0.696 0.359 0.949l-0.001-0.002c0.269 0.311 0.665 0.507 1.106 0.507 0.363 0 0.695-0.132 0.95-0.351l-0.002 0.002c0.064-0.048 0.096-0.103 0.16-0.157l14.573-14.531c0.262-0.26 0.425-0.62 0.425-1.018s-0.162-0.758-0.424-1.017l-0-0z"></path>
</symbol>
<symbol id="icon-Ratings" viewBox="0 0 204 32">
<path d="M202.48 10.936l-9.364-0.871c-0.603-0.062-1.104-0.442-1.337-0.967l-0.004-0.010-3.353-8.053c-0.253-0.583-0.824-0.983-1.487-0.983s-1.234 0.4-1.483 0.972l-0.004 0.010-3.327 8.053c-0.231 0.54-0.735 0.923-1.335 0.977l-0.006 0-9.364 0.871c-0.816 0.077-1.449 0.759-1.449 1.589 0 0.475 0.207 0.901 0.536 1.193l0.002 0.001 7.057 6.141c0.339 0.286 0.554 0.711 0.554 1.186 0 0.13-0.016 0.256-0.046 0.376l0.002-0.011-2.125 8.606c-0.026 0.108-0.041 0.232-0.041 0.359 0 0.888 0.72 1.608 1.608 1.608 0.303 0 0.586-0.084 0.828-0.229l-0.007 0.004 7.807-4.526c0.234-0.14 0.516-0.223 0.818-0.223s0.584 0.083 0.825 0.227l-0.007-0.004 7.809 4.526c0.236 0.145 0.522 0.23 0.827 0.23 0.885 0 1.602-0.717 1.602-1.602 0-0.131-0.016-0.259-0.046-0.381l0.002 0.011-2.091-8.606c-0.028-0.11-0.044-0.237-0.044-0.367 0-0.475 0.214-0.899 0.552-1.182l0.002-0.002 7.054-6.141c0.313-0.295 0.507-0.712 0.507-1.175 0-0.841-0.644-1.533-1.465-1.608l-0.006-0z"></path>
<path d="M159.983 10.936l-9.364-0.871c-0.603-0.062-1.104-0.442-1.337-0.967l-0.004-0.010-3.355-8.053c-0.252-0.584-0.823-0.986-1.487-0.986s-1.236 0.402-1.483 0.976l-0.004 0.010-3.327 8.053c-0.231 0.54-0.735 0.923-1.335 0.977l-0.006 0-9.364 0.871c-0.816 0.077-1.449 0.759-1.449 1.589 0 0.475 0.207 0.901 0.536 1.193l0.002 0.001 7.057 6.141c0.339 0.286 0.553 0.712 0.553 1.188 0 0.129-0.016 0.254-0.045 0.374l0.002-0.011-2.125 8.606c-0.026 0.108-0.041 0.232-0.041 0.359 0 0.888 0.72 1.608 1.608 1.608 0.303 0 0.586-0.084 0.828-0.229l-0.007 0.004 7.807-4.526c0.234-0.14 0.516-0.223 0.818-0.223s0.584 0.083 0.825 0.227l-0.007-0.004 7.809 4.526c0.236 0.145 0.522 0.23 0.827 0.23 0.885 0 1.602-0.717 1.602-1.602 0-0.131-0.016-0.259-0.046-0.381l0.002 0.011-2.091-8.606c-0.028-0.11-0.044-0.237-0.044-0.367 0-0.474 0.214-0.899 0.55-1.183l0.002-0.002 7.057-6.141c0.313-0.295 0.507-0.712 0.507-1.175 0-0.841-0.643-1.532-1.463-1.608l-0.006-0z"></path>
<path d="M117.487 10.936l-9.364-0.871c-0.603-0.062-1.104-0.442-1.337-0.967l-0.004-0.010-3.355-8.053c-0.252-0.584-0.823-0.986-1.487-0.986s-1.236 0.402-1.483 0.976l-0.004 0.010-3.328 8.053c-0.231 0.54-0.735 0.923-1.335 0.977l-0.006 0-9.364 0.871c-0.816 0.077-1.449 0.759-1.449 1.589 0 0.475 0.207 0.901 0.536 1.193l0.002 0.001 7.057 6.141c0.339 0.286 0.553 0.712 0.553 1.188 0 0.129-0.016 0.254-0.045 0.374l0.002-0.011-2.125 8.606c-0.026 0.108-0.041 0.232-0.041 0.359 0 0.888 0.72 1.608 1.609 1.608 0.303 0 0.586-0.084 0.828-0.229l-0.007 0.004 7.807-4.526c0.234-0.14 0.516-0.223 0.818-0.223s0.584 0.083 0.825 0.227l-0.007-0.004 7.809 4.526c0.236 0.145 0.522 0.23 0.828 0.23 0.885 0 1.602-0.717 1.602-1.602 0-0.131-0.016-0.259-0.046-0.381l0.002 0.011-2.091-8.606c-0.028-0.11-0.044-0.237-0.044-0.367 0-0.474 0.213-0.899 0.55-1.183l0.002-0.002 7.057-6.141c0.313-0.295 0.507-0.712 0.507-1.175 0-0.841-0.643-1.532-1.463-1.608l-0.006-0z"></path>
<path d="M74.99 10.936l-9.364-0.871c-0.603-0.062-1.104-0.442-1.337-0.967l-0.004-0.010-3.353-8.053c-0.253-0.583-0.824-0.983-1.487-0.983s-1.234 0.4-1.483 0.972l-0.004 0.010-3.328 8.053c-0.231 0.54-0.735 0.923-1.335 0.977l-0.006 0-9.364 0.871c-0.816 0.077-1.449 0.759-1.449 1.589 0 0.475 0.207 0.901 0.536 1.193l0.002 0.001 7.057 6.141c0.339 0.286 0.554 0.711 0.554 1.186 0 0.13-0.016 0.256-0.046 0.376l0.002-0.011-2.125 8.606c-0.026 0.108-0.041 0.232-0.041 0.359 0 0.888 0.72 1.608 1.608 1.608 0.303 0 0.586-0.084 0.828-0.229l-0.007 0.004 7.807-4.526c0.234-0.14 0.516-0.223 0.818-0.223s0.584 0.083 0.825 0.227l-0.007-0.004 7.809 4.526c0.236 0.145 0.522 0.23 0.828 0.23 0.885 0 1.602-0.717 1.602-1.602 0-0.131-0.016-0.259-0.046-0.381l0.002 0.011-2.091-8.606c-0.028-0.11-0.044-0.237-0.044-0.367 0-0.475 0.214-0.899 0.552-1.182l0.002-0.002 7.054-6.141c0.313-0.295 0.507-0.712 0.507-1.175 0-0.841-0.644-1.533-1.465-1.608l-0.006-0z"></path>
<path d="M32.493 10.936l-9.364-0.871c-0.603-0.062-1.104-0.442-1.337-0.967l-0.004-0.010-3.355-8.053c-0.252-0.584-0.823-0.986-1.487-0.986s-1.236 0.402-1.483 0.976l-0.004 0.010-3.328 8.053c-0.231 0.54-0.735 0.923-1.335 0.977l-0.006 0-9.364 0.871c-0.816 0.077-1.449 0.759-1.449 1.589 0 0.475 0.207 0.901 0.536 1.193l0.002 0.001 7.057 6.141c0.339 0.286 0.553 0.712 0.553 1.188 0 0.129-0.016 0.254-0.045 0.374l0.002-0.011-2.125 8.606c-0.026 0.108-0.041 0.232-0.041 0.359 0 0.888 0.72 1.608 1.609 1.608 0.303 0 0.586-0.084 0.828-0.229l-0.007 0.004 7.807-4.526c0.234-0.14 0.516-0.223 0.818-0.223s0.584 0.083 0.825 0.227l-0.007-0.004 7.809 4.526c0.236 0.145 0.522 0.23 0.828 0.23 0.885 0 1.602-0.717 1.602-1.602 0-0.131-0.016-0.259-0.046-0.381l0.002 0.011-2.091-8.606c-0.028-0.11-0.044-0.237-0.044-0.367 0-0.474 0.213-0.899 0.55-1.183l0.002-0.002 7.057-6.141c0.313-0.295 0.507-0.712 0.507-1.175 0-0.841-0.643-1.532-1.463-1.608l-0.006-0z"></path>
</symbol>
<symbol id="icon-Left" viewBox="0 0 64 32">
<path d="M0.389 14.992l14.543-14.464c0.268-0.324 0.671-0.529 1.121-0.529 0.802 0 1.453 0.65 1.453 1.453 0 0.371-0.139 0.709-0.367 0.965l0.001-0.001q-0.072 0.072-0.16 0.144l-12.054 12.016h57.57c0.8 0 1.448 0.648 1.448 1.448s-0.648 1.448-1.448 1.448h-57.568l12.054 11.984c0.31 0.266 0.506 0.658 0.506 1.096 0 0.358-0.131 0.686-0.347 0.938l0.002-0.002c-0.268 0.313-0.663 0.511-1.104 0.511-0.362 0-0.693-0.133-0.947-0.352l0.002 0.002c-0.060-0.047-0.113-0.1-0.159-0.158l-0.002-0.002-14.543-14.464c-0.259-0.26-0.42-0.619-0.42-1.016s0.16-0.756 0.42-1.016l-0 0z"></path>
</symbol>
<symbol id="icon-Right" viewBox="0 0 64 32">
<path d="M63.283 14.998l-14.479-14.463c-0.267-0.322-0.668-0.526-1.116-0.526-0.799 0-1.446 0.648-1.446 1.446 0 0.369 0.138 0.705 0.365 0.961l-0.001-0.001c0.045 0.061 0.098 0.114 0.157 0.158l0.002 0.001 11.994 12.010h-57.312c-0.796 0-1.442 0.645-1.442 1.441s0.645 1.442 1.442 1.442h57.312l-11.994 11.994c-0.322 0.267-0.526 0.668-0.526 1.116 0 0.799 0.648 1.446 1.446 1.446 0.369 0 0.705-0.138 0.961-0.365l-0.001 0.001c0.058-0.050 0.11-0.102 0.158-0.157l0.002-0.002 14.479-14.463c0.259-0.262 0.418-0.622 0.418-1.019s-0.16-0.758-0.419-1.020l0 0z"></path>
</symbol>
<symbol id="icon-Facebook" viewBox="0 0 17 32">
<path d="M16.131 0h-4.021c-4.517 0-7.435 3.093-7.435 7.878v3.627h-4.043c-0.35 0.005-0.633 0.29-0.633 0.641 0 0.005 0 0.010 0 0.014v-0.001 5.257c-0 0.004-0 0.009-0 0.014 0 0.351 0.282 0.636 0.632 0.641h4.042v13.272c-0 0.004-0 0.009-0 0.014 0 0.351 0.282 0.636 0.632 0.641h5.274c0.35-0.005 0.633-0.29 0.633-0.641 0-0.005-0-0.010-0-0.015v0.001-13.272h4.724c0.35-0.005 0.633-0.29 0.633-0.641 0-0.005-0-0.010-0-0.015v0.001-5.257c-0.001-0.178-0.071-0.339-0.186-0.457l0 0c-0.112-0.119-0.27-0.195-0.446-0.198h-4.724v-3.078c-0.036-0.135-0.056-0.29-0.056-0.449 0-1.010 0.819-1.829 1.829-1.829 0.155 0 0.306 0.019 0.45 0.056l-0.013-0.003h2.708c0.352-0.011 0.632-0.299 0.632-0.652 0-0.001 0-0.002 0-0.004v0-4.891c0-0.001 0-0.002 0-0.003 0-0.353-0.28-0.64-0.63-0.652l-0.001-0z"></path>
</symbol>
<symbol id="icon-Twitter" viewBox="0 0 39 32">
<path d="M38.032 0.587c-1.468 0.89-3.174 1.573-4.992 1.955l-0.106 0.019c-1.456-1.576-3.534-2.56-5.842-2.56-0.004 0-0.009 0-0.013 0h0.001c-4.436 0.018-8.025 3.618-8.025 8.057 0 0.005 0 0.010 0 0.015v-0.001c0 0.006-0 0.012-0 0.019 0 0.649 0.076 1.28 0.219 1.885l-0.011-0.055c-6.693-0.356-12.573-3.555-16.5-8.402l-0.033-0.042c-0.681 1.164-1.083 2.563-1.083 4.056 0 2.79 1.404 5.252 3.544 6.718l0.028 0.018c-1.341-0.051-2.586-0.421-3.674-1.034l0.041 0.021v0.089c-0 0.008-0 0.017-0 0.027 0 3.878 2.736 7.117 6.383 7.893l0.053 0.009c-0.633 0.177-1.361 0.281-2.112 0.284h-0.002c-0.536-0.002-1.058-0.054-1.564-0.151l0.053 0.008c1.049 3.225 3.991 5.531 7.483 5.618l0.010 0c-2.712 2.148-6.182 3.447-9.955 3.449h-0c-0.004 0-0.009 0-0.014 0-0.67 0-1.331-0.039-1.98-0.114l0.079 0.007c3.486 2.274 7.752 3.626 12.335 3.626 12.588 0 22.793-10.205 22.793-22.793 0-0.068-0-0.136-0.001-0.204l0 0.010-0.027-1.049c1.581-1.154 2.912-2.538 3.974-4.119l0.037-0.058c-1.341 0.616-2.896 1.066-4.527 1.272l-0.079 0.008c1.651-1.026 2.89-2.58 3.493-4.422l0.016-0.058z"></path>
</symbol>
<symbol id="icon-YouTube" viewBox="0 0 45 32">
<path d="M45.474 6.838c0-0.008 0-0.018 0-0.027 0-3.753-3.036-6.798-6.786-6.811h-31.883c-3.76 0.011-6.804 3.062-6.804 6.824 0 0.005 0 0.010 0 0.014v-0.001 18.324c0 0.004 0 0.009 0 0.014 0 3.762 3.044 6.813 6.803 6.824h31.883c3.751-0.013 6.787-3.058 6.787-6.811 0-0.009-0-0.019-0-0.028v0.001-18.324zM18.189 23.731v-17.213l13.002 8.606z"></path>
</symbol>
<symbol id="icon-cross" viewBox="0 0 32 32">
<path  d="M20.953 16l10.851-10.852c0.121-0.121 0.195-0.287 0.195-0.472s-0.075-0.351-0.195-0.472l-4.009-4.010c-0.121-0.121-0.288-0.195-0.472-0.195s-0.351 0.075-0.472 0.195v0l-10.852 10.852-10.852-10.852c-0.25-0.25-0.693-0.25-0.943 0l-4.009 4.010c-0.121 0.121-0.195 0.287-0.195 0.472s0.075 0.351 0.195 0.472l10.852 10.852-10.852 10.852c-0.121 0.121-0.195 0.287-0.195 0.472s0.075 0.351 0.195 0.472l4.009 4.010c0.121 0.121 0.287 0.195 0.472 0.195s0.351-0.075 0.472-0.195l10.852-10.852 10.852 10.852c0.121 0.121 0.287 0.195 0.472 0.195s0.351-0.075 0.472-0.195l4.009-4.010c0.121-0.121 0.195-0.287 0.195-0.472s-0.075-0.351-0.195-0.472l-10.852-10.852z"></path>
</symbol>
<symbol id="icon-menu" viewBox="0 0 32 32">
<path   d="M0 23.111h32v3.556h-32zM0 14.222h32v3.556h-32zM0 5.333h32v3.556h-32z"></path>
</symbol>
</defs>
</svg>
